<svg id="Layer_1" enable-background="new 0 0 512 512" height="512" viewBox="0 0 512 512" width="512" xmlns="http://www.w3.org/2000/svg"><g><path d="m207.8 126.4h-112.467c-8.284 0-15-6.716-15-15v-.017c0-51.752 41.897-95.317 95.333-95.317h32.134c8.284 0 15 6.716 15 15v80.334c0 8.285-6.716 15-15 15z" fill="#ec8600"/><path d="m416.667 126.4h-112.467c-8.284 0-15-6.716-15-15v-80.334c0-8.284 6.716-15 15-15h32.133c52.245 0 95.333 42.162 95.333 95.317.001 8.285-6.715 15.017-14.999 15.017z" fill="#ff4d05"/><path d="m304.2 126.4h-96.4c-8.284 0-15-6.716-15-15v-96.4c0-8.284 6.716-15 15-15h96.4c8.284 0 15 6.716 15 15v96.4c0 8.285-6.716 15-15 15z" fill="#004c9c"/><path d="m319.2 111.4v-96.4c0-8.284-6.716-15-15-15h-48.2v126.4h48.2c8.284 0 15-6.715 15-15z" fill="#00366d"/><path d="m416.667 321.333h-321.334c-8.284 0-15 6.716-15 15 0 97.018 78.649 175.667 175.667 175.667s175.667-78.649 175.667-175.667c0-8.284-6.716-15-15-15z" fill="#ffdcc8"/><path d="m431.667 336.333c0-8.284-6.716-15-15-15h-160.667v190.667c97.018 0 175.667-78.649 175.667-175.667z" fill="#ffc5bb"/><path d="m256.03 423.363c-17.936 0-35.876-2.843-52.967-8.531-7.86-2.616-12.112-11.109-9.496-18.97 2.616-7.86 11.106-12.113 18.969-9.495 28.064 9.34 58.932 9.342 86.916.004 7.86-2.62 16.355 1.623 18.977 9.48 2.623 7.858-1.622 16.354-9.48 18.977-17.051 5.69-34.983 8.535-52.919 8.535z" fill="#ffc5bb"/><path d="m416.667 351.333h-89.731c-18.408 0-36.418-7.459-49.413-20.464-.077-.077-.153-.155-.229-.233-5.642-5.52-13.384-8.68-21.294-8.68-7.909 0-15.65 3.159-21.293 8.679-.076.079-.152.157-.229.234-12.995 13.005-31.004 20.464-49.412 20.464h-89.733c-34.35 0-63.2-27.764-63.2-63.199v-128.534c0-34.849 28.352-63.199 63.2-63.199h321.333c34.849 0 63.2 28.351 63.2 63.199v128.534c.001 35.295-28.718 63.199-63.199 63.199z" fill="#00366d"/><path d="m308.948 414.828c7.858-2.622 12.103-11.118 9.48-18.977-2.622-7.857-11.117-12.101-18.977-9.48-14 4.672-28.721 7.005-43.452 7.002v29.99h.03c17.937 0 35.869-2.845 52.919-8.535z" fill="#ffadad"/><path d="m277.522 330.869c12.995 13.005 31.005 20.464 49.413 20.464h89.731c34.482 0 63.2-27.904 63.2-63.199v-128.534c0-34.849-28.352-63.199-63.2-63.199h-160.666v225.556c7.91 0 15.652 3.16 21.294 8.68.075.077.151.155.228.232z" fill="#01223c"/></g></svg>